<svg t="1612516830547" class="icon" viewBox="0 0 1024 1024" version="1.1" xmlns="http://www.w3.org/2000/svg" p-id="3421" width="24" height="24"><path d="M512 8A504.16 504.16 0 0 0 26.56 653.44v4.96h1.28A505.92 505.92 0 1 0 512 8z m466.4 492.32l-93.92 39.04-77.92-77.76-187.2 46.72L640 648.96l-132.64 49.6-157.6-139.84 128.64-220.8L640 196.64l20.8-124.48a466.08 466.08 0 0 1 317.6 428.16zM277.76 112l-11.68 81.44-76.8 38.4-38.4 96-70.88 11.04A468.16 468.16 0 0 1 277.76 112z m-208 546.88h48l64 60.8-16 104.8a464.96 464.96 0 0 1-96.16-166.08zM512 979.04a464 464 0 0 1-311.52-120L224 705.12l-89.76-86.4H58.56a455.2 455.2 0 0 1 6.72-237.12l114.08-19.04 41.12-102.4 81.92-40.96 18.56-130.08a464 464 0 0 1 332.32-19.68l-32-5.28-18.72 112L448 312.32l-148.8 254.56 199.2 177.28 184.96-69.28-19.52-136.8 130.56-32 80.8 80L977.6 544A466.4 466.4 0 0 1 512 979.04z" p-id="3422"></path></svg>